HIERARCHY
ROOT SpineBase
{
  OFFSET 0.000000 0.000000 0.000000
  CHANNELS 6 Xposition Yposition Zposition Zrotation Xrotation Yrotation
  JOINT SpineMid
  {
    OFFSET 0.000000 25.974722 0.000000
    CHANNELS 3 Zrotation Xrotation Yrotation
    JOINT SpineShoulder
    {
      OFFSET -0.090591 19.332499 -0.614347
      CHANNELS 3 Zrotation Xrotation Yrotation
      JOINT Neck
      {
        OFFSET -0.053357 6.401806 -0.475218
        CHANNELS 3 Zrotation Xrotation Yrotation
        JOINT Head
        {
          OFFSET -3.023281 12.019895 0.446418
          CHANNELS 3 Zrotation Xrotation Yrotation
          End Site
          {
            OFFSET 0 0 0
          }
        }
      }
      JOINT ShoulderLeft
      {
        OFFSET -12.010997 -4.755739 7.953505
        CHANNELS 3 Zrotation Xrotation Yrotation
        JOINT ElbowLeft
        {
          OFFSET -0.295245 -20.292532 -11.582389
          CHANNELS 3 Zrotation Xrotation Yrotation
          JOINT WristLeft
          {
            OFFSET -1.203733 -19.447188 10.758617
            CHANNELS 3 Zrotation Xrotation Yrotation
            JOINT HandLeft
            {
              OFFSET -0.124154 -12.354353 3.527765
              CHANNELS 3 Zrotation Xrotation Yrotation
              JOINT HandTipLeft
              {
                OFFSET -0.797725 -6.194312 0.465407
                CHANNELS 3 Zrotation Xrotation Yrotation
                End Site
                {
                  OFFSET 0 0 0
                }
              }
              JOINT ThumbLeft
              {
                OFFSET 1.265912 -0.316904 -4.145616
                CHANNELS 3 Zrotation Xrotation Yrotation
                End Site
                {
                  OFFSET 0 0 0
                }
              }
            }
          }
        }
      }
      JOINT ShoulderRight
      {
        OFFSET 9.254342 -4.004560 -11.251909
        CHANNELS 3 Zrotation Xrotation Yrotation
        JOINT ElbowRight
        {
          OFFSET 7.736063 -18.418967 -3.432765
          CHANNELS 3 Zrotation Xrotation Yrotation
          JOINT WristRight
          {
            OFFSET -20.121535 -6.645435 -4.186853
            CHANNELS 3 Zrotation Xrotation Yrotation
            JOINT HandRight
            {
              OFFSET -6.023334 -0.517568 -0.371579
              CHANNELS 3 Zrotation Xrotation Yrotation
              JOINT HandTipRight
              {
                OFFSET -5.742703 0.235770 -0.846965
                CHANNELS 3 Zrotation Xrotation Yrotation
                End Site
                {
                  OFFSET 0 0 0
                }
              }
              JOINT ThumbRight
              {
                OFFSET 0.963930 2.120283 -3.363744
                CHANNELS 3 Zrotation Xrotation Yrotation
                End Site
                {
                  OFFSET 0 0 0
                }
              }
            }
          }
        }
      }
    }
  }
  JOINT HipLeft
  {
    OFFSET -5.313605 -0.172103 0.754088
    CHANNELS 3 Zrotation Xrotation Yrotation
    JOINT KneeLeft
    {
      OFFSET 5.345618 -31.373548 7.606885
      CHANNELS 3 Zrotation Xrotation Yrotation
      JOINT AnkleLeft
      {
        OFFSET 8.158947 -33.157947 8.403461
        CHANNELS 3 Zrotation Xrotation Yrotation
        JOINT FootLeft
        {
          OFFSET -5.034343 -3.065021 -8.408317
          CHANNELS 3 Zrotation Xrotation Yrotation
          End Site
          {
            OFFSET 0 0 0
          }
        }
      }
    }
  }
  JOINT HipRight
  {
    OFFSET 4.785248 1.286830 -6.857187
    CHANNELS 3 Zrotation Xrotation Yrotation
    JOINT KneeRight
    {
      OFFSET 7.863301 -27.980897 1.564652
      CHANNELS 3 Zrotation Xrotation Yrotation
      JOINT AnkleRight
      {
        OFFSET 8.081526 -35.520080 9.319617
        CHANNELS 3 Zrotation Xrotation Yrotation
        JOINT FootRight
        {
          OFFSET -5.714705 -2.458471 -9.180357
          CHANNELS 3 Zrotation Xrotation Yrotation
          End Site
          {
            OFFSET 0 0 0
          }
        }
      }
    }
  }
}
MOTION
Frames: 6
Frame Time: 0.033333
29.619156 71.875475 351.714794 -0.000000 0.000000 37.004499 0.000000 0.000000 -37.004499 -0.000000 0.000000 0.000000 -0.000000 0.000000 0.000000 0.000000 0.000000 0.000000 -0.000000 0.000000 0.000000 -0.000000 0.000000 0.000000 -0.000000 0.000000 0.000000 -0.000000 0.000000 0.000000 0.000000 0.000000 0.000000 0.000000 0.000000 0.000000 -0.000000 0.000000 0.000000 -0.000000 0.000000 0.000000 -0.000000 0.000000 0.000000 -0.000000 0.000000 0.000000 0.000000 0.000000 0.000000 0.000000 0.000000 0.000000 0.000000 0.000000 -37.004499 -0.000000 0.000000 0.000000 -0.000000 0.000000 0.000000 0.000000 0.000000 0.000000 0.000000 0.000000 -37.004499 -0.000000 0.000000 0.000000 -0.000000 0.000000 0.000000 0.000000 0.000000 0.000000
29.621931 71.852749 351.691744 0.036871 0.022969 37.089523 -0.043263 0.003914 -37.089529 -0.000000 0.000000 0.000000 -0.000000 0.000000 0.000000 0.000000 0.000000 0.000000 0.312875 5.147025 -0.260897 -0.246714 -6.648298 0.351082 -0.553322 -1.453909 -0.228101 0.814305 2.126437 0.219079 0.000000 0.000000 0.000000 0.000000 0.000000 0.000000 -0.000000 0.000000 0.000000 -0.000000 0.000000 0.000000 -0.286562 -0.122074 1.581185 3.821380 -0.473505 -1.116746 0.000000 0.000000 0.000000 0.000000 0.000000 0.000000 -0.043263 0.003914 -37.089529 -0.000000 0.000000 0.000000 -0.000000 0.000000 0.000000 0.000000 0.000000 0.000000 -0.043263 0.003914 -37.089529 -0.000000 0.000000 0.000000 1.389029 -2.126333 -0.241690 0.000000 0.000000 0.000000
29.618132 71.846744 351.673423 0.056857 0.052084 37.191591 -0.076777 -0.007122 -37.191621 -0.000000 0.000000 0.000000 -0.000000 0.000000 0.000000 0.000000 0.000000 0.000000 0.593716 9.079695 -0.495960 -0.461919 -11.665614 0.598169 -0.930407 -2.278387 -0.377878 1.486030 3.370832 0.358436 0.000000 0.000000 0.000000 0.000000 0.000000 0.000000 -0.000000 0.000000 0.000000 -0.000000 0.000000 0.000000 -1.185235 -0.218116 3.026151 6.544372 -0.823471 -1.873637 0.000000 0.000000 0.000000 0.000000 0.000000 0.000000 -0.076777 -0.007122 -37.191621 -0.000000 0.000000 0.000000 -0.000000 0.000000 0.000000 0.000000 0.000000 0.000000 -0.921498 -0.983869 -37.565546 0.074170 1.289193 0.365785 2.869869 -4.421990 -0.406221 0.000000 0.000000 0.000000
29.607760 71.857460 351.659833 0.059986 0.087383 37.310566 -0.100677 -0.033142 -37.310641 -0.000000 0.000000 0.000000 -0.000000 0.000000 0.000000 0.000000 0.000000 0.000000 0.823859 11.695572 -0.685378 -0.661446 -14.946001 0.739415 -1.172607 -2.790254 -0.462714 2.072102 4.017167 0.454614 0.000000 0.000000 0.000000 0.000000 0.000000 0.000000 0.817105 0.633640 0.108891 -2.690621 -0.342795 0.167529 -0.803764 -0.599249 4.113866 8.374555 -0.992764 -2.369949 0.000000 0.000000 0.000000 0.000000 0.000000 0.000000 -0.100677 -0.033142 -37.310641 -0.000000 0.000000 0.000000 -0.000000 0.000000 0.000000 0.000000 0.000000 0.000000 -1.261235 -1.335783 -37.820567 -0.553433 1.283138 0.231957 5.152707 -6.413727 -0.233698 0.000000 0.000000 0.000000
29.590813 71.884898 351.650971 0.046242 0.128921 37.446293 -0.115099 -0.074237 -37.446420 -0.000000 0.000000 0.000000 -0.000000 0.000000 0.000000 0.000000 0.000000 0.000000 0.988581 12.958924 -0.813267 -0.856263 -16.451804 0.776317 -1.305435 -3.158244 -0.492166 2.608030 4.213426 0.528053 0.000000 0.000000 0.000000 0.000000 0.000000 0.000000 0.799471 1.106603 0.306621 -5.378846 -0.347061 0.228018 -0.223128 -1.175323 5.204337 9.444376 -0.948438 -2.659597 0.000000 0.000000 0.000000 0.000000 0.000000 0.000000 -0.115099 -0.074237 -37.446420 -0.000000 0.000000 0.000000 -0.000000 0.000000 0.000000 0.000000 0.000000 0.000000 -1.532430 -1.612008 -38.062870 -0.657164 1.605823 0.294249 7.011278 -9.017472 -0.160661 0.000000 0.000000 0.000000
29.567293 71.929056 351.646840 0.015565 0.176767 37.598592 -0.120183 -0.130556 -37.598752 -0.000000 0.000000 0.000000 -0.000000 0.000000 0.000000 0.000000 0.000000 0.000000 1.078567 12.861315 -0.869295 -1.050218 -16.173268 0.715719 -1.344861 -3.463325 -0.471923 3.118689 4.027962 0.592668 0.000000 0.000000 0.000000 0.000000 0.000000 0.000000 0.631333 1.713644 0.589674 -9.002235 -0.277696 0.268115 0.713329 -1.989364 6.245744 9.824872 -0.661537 -2.763842 0.000000 0.000000 0.000000 0.000000 0.000000 0.000000 -0.120183 -0.130556 -37.598752 -0.000000 0.000000 0.000000 -0.000000 0.000000 0.000000 0.000000 0.000000 0.000000 -1.741208 -1.821314 -38.294567 -0.709786 1.904603 0.356878 8.941719 -11.854483 0.028680 0.000000 0.000000 0.000000
